<svg width="18" height="18" viewBox="0 0 18 18" fill="none" xmlns="http://www.w3.org/2000/svg">
<path fill-rule="evenodd" clip-rule="evenodd" d="M11.6088 1.94128C13.0709 0.479209 15.4414 0.479209 16.9034 1.94128C18.3655 3.40335 18.3655 5.77383 16.9034 7.2359L16.4801 7.6593C16.1872 7.95219 15.7123 7.95219 15.4194 7.6593C15.1265 7.36641 15.1265 6.89153 15.4194 6.59864L15.8428 6.17524C16.7191 5.29896 16.7191 3.87822 15.8428 3.00194C14.9665 2.12566 13.5458 2.12566 12.6695 3.00194L5.47174 10.1997C5.06313 10.6083 5.06313 11.2708 5.47174 11.6794C5.88035 12.088 6.54285 12.088 6.95146 11.6794L12.4556 6.17524C12.7485 5.88235 13.2234 5.88235 13.5163 6.17524C13.8092 6.46814 13.8092 6.94301 13.5163 7.2359L8.01212 12.7401C7.01772 13.7345 5.40548 13.7345 4.41108 12.7401C3.41668 11.7457 3.41668 10.1334 4.41108 9.13902L11.6088 1.94128ZM8.85891 2.36468C9.15181 2.65757 9.15181 3.13244 8.85891 3.42534L2.50797 9.77628C1.16401 11.1202 1.16401 13.2992 2.50797 14.6432C3.85192 15.9871 6.0309 15.9871 7.37486 14.6432L13.7258 8.29223C14.0187 7.99933 14.4936 7.99933 14.7865 8.29223C15.0794 8.58512 15.0794 9.05999 14.7865 9.35289L8.43552 15.7038C6.50577 17.6336 3.37705 17.6336 1.44731 15.7038C-0.482435 13.7741 -0.482436 10.6454 1.44731 8.71562L7.79825 2.36468C8.09115 2.07178 8.56602 2.07178 8.85891 2.36468Z" fill="#909090"/>
</svg>
