<svg width="15" height="18" viewBox="0 0 15 18" fill="none" xmlns="http://www.w3.org/2000/svg">
<path fill-rule="evenodd" clip-rule="evenodd" d="M6.74924 17.426C6.84208 17.5004 6.91564 17.558 6.96673 17.5975L7.49861 17.9965L8.03049 17.5975C8.08157 17.558 8.15514 17.5004 8.24798 17.426C8.43358 17.2773 8.69659 17.0608 9.01125 16.7861C9.63951 16.2375 10.479 15.4522 11.3209 14.506C12.9698 12.6529 14.7726 10.024 14.7726 7.274C14.7726 3.25668 11.5159 0 7.49861 0C3.48129 0 0.224609 3.25668 0.224609 7.274C0.224609 10.024 2.02743 12.6529 3.6763 14.506C4.51817 15.4522 5.35771 16.2375 5.98597 16.7861C6.30063 17.0608 6.56364 17.2773 6.74924 17.426ZM7.49861 1.5C4.30972 1.5 1.72461 4.08511 1.72461 7.274C1.72461 9.43188 3.18378 11.696 4.79691 13.5089C5.58604 14.3958 6.37751 15.1367 6.9725 15.6561C7.17352 15.8317 7.35149 15.9814 7.49861 16.1023C7.64572 15.9814 7.8237 15.8317 8.02471 15.6561C8.61971 15.1367 9.41117 14.3958 10.2003 13.5089C11.8134 11.696 13.2726 9.43188 13.2726 7.274C13.2726 4.08511 10.6875 1.5 7.49861 1.5Z" fill="#222222"/>
<path fill-rule="evenodd" clip-rule="evenodd" d="M7.49833 4.76172C6.11099 4.76172 4.98633 5.88638 4.98633 7.27372C4.98633 8.66106 6.11099 9.78572 7.49833 9.78572C8.88567 9.78572 10.0103 8.66106 10.0103 7.27372C10.0103 5.88638 8.88567 4.76172 7.49833 4.76172ZM3.48633 7.27372C3.48633 5.05795 5.28256 3.26172 7.49833 3.26172C9.71409 3.26172 11.5103 5.05795 11.5103 7.27372C11.5103 9.48949 9.71409 11.2857 7.49833 11.2857C5.28256 11.2857 3.48633 9.48949 3.48633 7.27372Z" fill="#222222"/>
</svg>
